<svg version="1.1" xmlns="http://www.w3.org/2000/svg" xmlns:xlink="http://www.w3.org/1999/xlink" width="48" height="48"><defs><linearGradient x1="14.47345" y1="11.6715" x2="46.25447" y2="49.05641" gradientUnits="userSpaceOnUse" id="color-1"><stop offset="0" stop-color="#000000" stop-opacity="0.05"></stop><stop offset="1" stop-color="#000000" stop-opacity="0"></stop></linearGradient><filter id="dropshadow-base"><feColorMatrix type="matrix" values="0 0 0 0 0  0 0 0 0 0  0 0 0 0 0  0 0 0 .8 0"></feColorMatrix> <feOffset dx="0" dy="1"></feOffset> <feGaussianBlur stdDeviation="1"></feGaussianBlur> <feComposite in="SourceGraphic"></feComposite></filter><filter id="dropshadow-banner" x="-10%" y="-10%" width="120%" height="130%"><feColorMatrix type="matrix" values="0 0 0 0 0  0 0 0 0 0  0 0 0 0 0  0 0 0 .4 0"></feColorMatrix> <feOffset dx="0" dy="1"></feOffset> <feGaussianBlur stdDeviation="0.5"></feGaussianBlur> <feComposite in="SourceGraphic"></feComposite></filter></defs><g fill="none" fill-rule="nonzero" stroke="none" stroke-width="none" stroke-linecap="butt" stroke-linejoin="miter" stroke-miterlimit="10" stroke-dasharray="" stroke-dashoffset="0" font-family="none" font-weight="none" font-size="none" text-anchor="none" style="mix-blend-mode: normal"><path d="M2,24c0,-12.15026 9.84974,-22 22,-22c12.15026,0 22,9.84974 22,22c0,12.15026 -9.84974,22 -22,22c-12.15026,0 -22,-9.84974 -22,-22z" id="base 1 5" fill="#ffffff" stroke-width="1"></path><path d="M18.4942,35.67003c-0.40628,-0.40628 -0.65845,-0.96667 -0.65845,-1.58309l0,-2.70108l-3.3623,-3.3623l4.25332,-4.25332l-2.01179,-2.01179v-2.24155h3.36231l-2.24155,-2.24155v-3.36231c0,-1.23285 1.00869,-2.24155 2.24155,-2.24155l11.20771,0.0112c0.61923,0 1.18191,0.25165 1.58862,0.65836l12.72792,12.72792c0.13368,0.13368 0.25052,0.28412 0.34698,0.44789c-0.67867,9.96603 -7.99445,18.10981 -17.56175,20.04573z" fill="url(#color-1)" stroke-width="1"></path><path d="M33.52655,13.91306v20.17388c0,1.23285 -1.00869,2.24154 -2.24154,2.24154h-11.20771c-1.23285,0 -2.24154,-1.00869 -2.24154,-2.24154v-3.36231h2.24154v1.12077h11.20771v-15.69079h-11.20771v1.12077h-2.24154v-3.36231c0,-1.23285 1.00869,-2.24154 2.24154,-2.24154l11.20771,0.01121c1.23285,0 2.24154,0.99749 2.24154,2.23033zM22.31884,23.33875l-6.26511,6.26511l-1.58029,-1.58029l6.26511,-6.26511h-4.02357v-2.24154h7.8454v7.8454h-2.24154z" fill="none" stroke-width="0"></path><path d="M33.52655,13.91306v20.17388c0,1.23285 -1.00869,2.24154 -2.24154,2.24154h-11.20771c-1.23285,0 -2.24154,-1.00869 -2.24154,-2.24154v-3.36231h2.24154v1.12077h11.20771v-15.69079h-11.20771v1.12077h-2.24154v-3.36231c0,-1.23285 1.00869,-2.24154 2.24154,-2.24154l11.20771,0.01121c1.23285,0 2.24154,0.99749 2.24154,2.23033zM22.31884,23.33875l-6.26511,6.26511l-1.58029,-1.58029l6.26511,-6.26511h-4.02357v-2.24154h7.8454v7.8454h-2.24154z" fill="#757575" stroke-width="0"></path><path d="M2,24c0,-12.15026 9.84974,-22 22,-22c12.15026,0 22,9.84974 22,22c0,12.15026 -9.84974,22 -22,22c-12.15026,0 -22,-9.84974 -22,-22z" id="base 1 1 1" fill="none" stroke-width="1"></path><g fill="#757575" stroke-width="1" font-family="Roboto, sans-serif" font-weight="400" font-size="14" text-anchor="start"></g><rect x="2" y="2" width="44" height="22" fill="none" stroke-width="1"></rect><path d="M2,24v-22h44v22z" fill="none" stroke-width="1"></path><path d="M2,24v-22h44v22z" fill="none" stroke-width="1"></path><path d="M2,24v-22h44v22z" fill="none" stroke-width="1"></path><path d="M2,24v-22h44v22z" fill="none" stroke-width="1"></path></g></svg>
